<svg xmlns="http://www.w3.org/2000/svg" xmlns:xlink="http://www.w3.org/1999/xlink" width="500" zoomAndPan="magnify" viewBox="0 0 375 374.999991" height="500" preserveAspectRatio="xMidYMid meet" version="1.0"><defs><g/><clipPath id="1afbd174d6"><rect x="0" width="365" y="0" height="375"/></clipPath></defs><g transform="matrix(1, 0, 0, 1, 0, 0)"><g clip-path="url(#1afbd174d6)"><g fill="#ffbd59" fill-opacity="1"><g transform="translate(-5.545205, 330.436213)"><g><path d="M 42.65625 0 L 42.65625 -282.21875 L 149.609375 -282.21875 C 166.984375 -282.21875 181.71875 -279.453125 193.8125 -273.921875 C 205.90625 -268.390625 215.007812 -260.503906 221.125 -250.265625 C 227.238281 -240.035156 230.296875 -227.84375 230.296875 -213.6875 C 230.296875 -201.46875 226.976562 -190.398438 220.34375 -180.484375 C 213.71875 -170.578125 204.226562 -162.859375 191.875 -157.328125 L 191.875 -153.265625 C 210.664062 -148.640625 224.921875 -140.210938 234.640625 -127.984375 C 244.359375 -115.753906 249.21875 -100.375 249.21875 -81.84375 C 249.21875 -55.59375 241.523438 -35.390625 226.140625 -21.234375 C 210.765625 -7.078125 187.957031 0 157.71875 0 Z M 148.0625 -163.703125 C 163.632812 -163.703125 175.726562 -167.785156 184.34375 -175.953125 C 192.96875 -184.128906 197.28125 -195.359375 197.28125 -209.640625 C 197.28125 -224.691406 193.128906 -235.984375 184.828125 -243.515625 C 176.535156 -251.046875 164.28125 -254.8125 148.0625 -254.8125 L 75.859375 -254.8125 L 75.859375 -163.703125 Z M 155.203125 -27.40625 C 195.359375 -27.40625 215.4375 -45.550781 215.4375 -81.84375 C 215.4375 -118.132812 195.359375 -136.28125 155.203125 -136.28125 L 75.859375 -136.28125 L 75.859375 -27.40625 Z M 155.203125 -27.40625 "/></g></g></g><g fill="#ffbd59" fill-opacity="1"><g transform="translate(259.688935, 330.436213)"><g><path d="M 51.921875 1.9375 C 44.585938 1.9375 38.796875 -0.117188 34.546875 -4.234375 C 30.304688 -8.359375 28.1875 -13.832031 28.1875 -20.65625 C 28.1875 -27.34375 30.304688 -32.84375 34.546875 -37.15625 C 38.796875 -41.46875 44.585938 -43.625 51.921875 -43.625 C 59.390625 -43.625 65.242188 -41.5625 69.484375 -37.4375 C 73.734375 -33.320312 75.859375 -27.859375 75.859375 -21.046875 C 75.859375 -14.222656 73.703125 -8.6875 69.390625 -4.4375 C 65.085938 -0.1875 59.265625 1.9375 51.921875 1.9375 Z M 51.921875 1.9375 "/></g></g></g></g></g></svg>